<?xml version="1.0" encoding="UTF-8" standalone="no"?>
<!-- Created with Inkscape (http://www.inkscape.org/) -->

<svg
   xmlns:dc="http://purl.org/dc/elements/1.1/"
   xmlns:cc="http://creativecommons.org/ns#"
   xmlns:rdf="http://www.w3.org/1999/02/22-rdf-syntax-ns#"
   xmlns:svg="http://www.w3.org/2000/svg"
   xmlns="http://www.w3.org/2000/svg"
   xmlns:xlink="http://www.w3.org/1999/xlink"
   xmlns:sodipodi="http://sodipodi.sourceforge.net/DTD/sodipodi-0.dtd"
   xmlns:inkscape="http://www.inkscape.org/namespaces/inkscape"
   width="700.09003"
   height="375"
   id="svg2"
   version="1.1"
   inkscape:version="0.48.4 r9939"
   sodipodi:docname="token.svg">
  <defs
     id="defs4">
    <linearGradient
       id="linearGradient3981">
      <stop
         style="stop-color:#dfdfdf;stop-opacity:1;"
         offset="0"
         id="stop3983" />
      <stop
         style="stop-color:#b0b0b0;stop-opacity:1;"
         offset="1"
         id="stop3985" />
    </linearGradient>
    <linearGradient
       inkscape:collect="always"
       xlink:href="#linearGradient3981"
       id="linearGradient3987"
       x1="144.45181"
       y1="711.9408"
       x2="141.42136"
       y2="1238.2302"
       gradientUnits="userSpaceOnUse" />
  </defs>
  <sodipodi:namedview
     id="base"
     pagecolor="#ffffff"
     bordercolor="#666666"
     borderopacity="1.0"
     inkscape:pageopacity="0.0"
     inkscape:pageshadow="2"
     inkscape:zoom="0.98994949"
     inkscape:cx="33.830352"
     inkscape:cy="-47.41735"
     inkscape:document-units="px"
     inkscape:current-layer="layer1"
     showgrid="false"
     inkscape:window-width="1920"
     inkscape:window-height="1056"
     inkscape:window-x="0"
     inkscape:window-y="24"
     inkscape:window-maximized="1" />
  <metadata
     id="metadata7">
    <rdf:RDF>
      <cc:Work
         rdf:about="">
        <dc:format>image/svg+xml</dc:format>
        <dc:type
           rdf:resource="http://purl.org/dc/dcmitype/StillImage" />
      </cc:Work>
    </rdf:RDF>
  </metadata>
  <g
     inkscape:label="Layer 1"
     inkscape:groupmode="layer"
     id="layer1"
     transform="translate(0,-677.36218)">
    <path
       style="fill:url(#linearGradient3987);fill-opacity:1;stroke:#666666;stroke-width:2;stroke-miterlimit:4;stroke-dasharray:none"
       d="m 692.3085,869.15625 c 0,0 1.34664,-112.34375 -31.15626,-112.34375 l -345.62499,0 c 0,0 -36.79312,-44.96526 -132,-51.53125 -41.65301,-2.87262 -65.88628,-3.72375 -80,-3.78125 -18.146214,-0.0739 -19.531254,1.1875 -19.531254,1.1875 0,0 -55.092246,1.25647 -67.006696,100.86384 -4.1366,34.58282 -4.6406,65.50446 -4.46875,67.46875 m 0,-1.41546 c -0.149529,-1.23884 0.376792,32.47098 4.513392,67.0538 11.91445,99.60747 66.962054,98.99787 66.962054,98.99787 0,0 4.32438,3.9409 99.531254,-2.625 95.20688,-6.566 132,-51.53135 132,-51.53135 l 345.62499,0 c 32.5029,0 31.15626,-112.3125 31.15626,-112.3125"
       id="path2996"
       inkscape:connector-curvature="0"
       sodipodi:nodetypes="cscsscsccscscsc" />
    <path
       inkscape:connector-curvature="0"
       style="fill:#ececec;fill-opacity:1;stroke:none"
       d="m 170.04834,750.625 c -65.55229,0 -118.687504,53.13521 -118.687504,118.6875 0,65.55228 53.135214,118.6875 118.687504,118.6875 46.36625,0 86.52801,-26.58423 106.0625,-65.34375 -6.36455,-32.38023 -8.79049,-66.72976 0,-106.6875 C 256.57635,777.20922 216.41459,750.625 170.04834,750.625 z"
       id="path3003"
       sodipodi:nodetypes="sssccs" />
    <path
       style="fill:#9ea1a0;fill-opacity:1;stroke:none"
       d="m 342.0012,825.65601 c 0,0 -8.11664,49.88772 -0.25002,92.74882 69.76269,0 293.82882,1.50811 293.82882,1.50811 0,0 8.72629,-47.62102 0,-95.76504 -74.01079,0 -293.5788,1.50811 -293.5788,1.50811 z"
       id="path3045"
       inkscape:connector-curvature="0"
       sodipodi:nodetypes="ccccc" />
    <g
       style="fill-rule:evenodd"
       id="Layer_x0020_1"
       transform="matrix(1.7235776,0,0,1.7235776,81.324356,764.18226)">
      <metadata
         id="CorelCorpID_0Corel-Layer" />
      <g
         id="_284141760">
        <path
           id="_284140344"
           class="fil0"
           d="m 17.0101,100.321 c 0,-0.7522 -0.0819,-1.0663 -0.1503,-1.2005 -0.1024,-0.1963 -0.2425,-0.3612 -0.4274,-0.502 -0.2052,-0.1547 -0.5621,-0.3767 -1.0611,-0.659 L 13.0405,96.706 C 12.7034,96.5008 12.473,96.3418 12.3249,96.212 12.1275,96.0398 12.0317,95.7504 12.0317,95.3249 l 0,-3.0471 c 0,-0.8775 0.4652,-1.3613 1.3102,-1.3613 l 0.386,-3e-4 c 0.8618,0 1.3372,0.4838 1.3372,1.3614 l 0,1.354 1.9457,0 0,-1.5335 c 0,-1.9464 -0.8812,-2.8942 -2.6931,-2.8942 l -1.5401,2e-4 c -1.8122,0 -2.6925,0.9474 -2.6925,2.8942 l 0,3.765 c 0,0.4478 0.0464,0.8106 0.139,1.0809 0.0878,0.2563 0.2238,0.4567 0.4201,0.615 0.2161,0.1763 0.5778,0.3985 1.0748,0.6637 l 2.3405,1.3102 c 0.3237,0.1963 0.5609,0.3612 0.7113,0.4904 0.1979,0.1722 0.2943,0.4633 0.2943,0.8878 l 0,3.1242 c 0,0.8618 -0.4388,1.3372 -1.2337,1.3372 l -0.437,0 c -0.8787,0 -1.362,-0.4754 -1.362,-1.3372 l 0,-0.7397 -1.9468,0 0,0.6637 c 0,2.1015 0.8798,3.1223 2.6924,3.1223 l 1.5156,0 c 1.829,0 2.7179,-0.928 2.7179,-2.8405 l 0,-3.9203 -0.0014,0 z"
           inkscape:connector-curvature="0"
           style="fill:#2c2c2c" />
        <polygon
           id="_284136480"
           class="fil0"
           points="36.3866,89.2042 36.3866,107.082 41.9773,107.082 41.9773,105.372 38.3327,105.372 38.3327,98.7305 41.567,98.7305 41.567,97.0189 38.3327,97.0189 38.3327,90.9163 41.9773,90.9163 41.9773,89.2042 "
           style="fill:#2c2c2c" />
        <path
           id="_284141520"
           class="fil0"
           d="m 26.4288,107.082 0,-14.9835 c 0,-1.9463 -0.8812,-2.8942 -2.6938,-2.8942 l -1.8488,0 c -1.8104,0 -2.6924,0.9474 -2.6924,2.8942 l 0,14.9835 1.9468,0 0,-6.7385 3.3411,0 0,6.7385 1.9471,0 z m -5.2882,-8.449 0,-6.3816 c 0,-0.8623 0.4742,-1.3354 1.3372,-1.3354 l 0.6667,0 c 0.8619,0 1.3372,0.4731 1.3372,1.3354 l 0,6.3816 -3.3411,0 z"
           inkscape:connector-curvature="0"
           style="fill:#2c2c2c" />
        <polygon
           id="_284141640"
           class="fil0"
           points="28.8679,107.082 30.8149,107.082 30.8149,98.7305 34.0485,98.7305 34.0485,97.0189 30.8149,97.0189 30.8149,90.9163 34.4595,90.9163 34.4595,89.2042 28.8679,89.2042 "
           style="fill:#2c2c2c" />
      </g>
      <g
         id="_284138880">
        <path
           id="_284141880"
           class="fil1"
           d="m 48.7424,89.2042 -1.6934,0 c -1.7435,0 -2.5908,0.9474 -2.5908,2.8942 l 0,12.1437 c 0,1.9125 0.8473,2.8405 2.5908,2.8405 l 4.566,0 0,-8.449 -3.2294,0 0,1.7103 1.2826,0 0,5.0289 -1.9266,0 c -0.5006,0 -1.3372,-0.207 -1.3372,-1.5925 l 0,-11.2733 c 0,-1.3855 0.8366,-1.5907 1.3372,-1.5907 l 0.6151,0 c 0.4892,0 1.3113,0.2052 1.3113,1.5907 l 0,1.3811 1.947,2e-4 0,-1.7391 c 0,-1.9821 -0.9394,-2.945 -2.8726,-2.945 z"
           inkscape:connector-curvature="0"
           style="fill:#686868" />
        <path
           id="_284141856"
           class="fil1"
           d="m 59.4187,103.907 c 0,1.274 -0.7883,1.466 -1.2583,1.466 l -1.0019,0 c -0.8619,0 -1.3373,-0.52 -1.3373,-1.466 l 0,-14.7026 -1.9452,0 0,14.6273 c 0,2.1871 0.8798,3.2504 2.6924,3.2504 l 2.0795,0 c 1.8301,0 2.719,-1.0549 2.719,-3.2244 l 0,-14.6533 -1.9475,0 0,14.7026 -7e-4,0 z"
           inkscape:connector-curvature="0"
           style="fill:#686868" />
        <path
           id="_284142000"
           class="fil1"
           d="m 86.951,89.2042 -4.0267,0 0,17.8777 4.5412,0 c 1.8374,0 2.6943,-0.7649 2.6943,-2.4054 l 0,-12.1959 c 2e-4,-2.2039 -1.0513,-3.2764 -3.2088,-3.2764 z m 1.2619,15.087 c 0,0.4038 -0.1612,1.0809 -1.2344,1.0809 l -2.1085,0 0,-14.4565 1.9782,3e-4 c 0.5104,0 1.365,0.2051 1.365,1.5906 l -3e-4,11.7847 z"
           inkscape:connector-curvature="0"
           style="fill:#686868" />
        <path
           id="_284142144"
           class="fil1"
           d="m 79.306,99.4436 c 0.8787,-0.3846 1.3066,-1.3047 1.3066,-2.813 l 0,-4.5324 c 0,-1.9464 -0.8384,-2.8942 -2.5651,-2.8942 l -4.5676,2e-4 0,17.8777 1.9475,0 0,-7.4295 1.9546,0 1.6188,7.4295 1.8038,0 -1.696,-7.5528 0.1974,-0.0855 z m -0.6398,-2.9645 c 0,1.383 -0.8534,1.5899 -1.3632,1.5899 l -1.8751,0 0,-7.1527 1.8754,0 c 0.5097,0 1.3631,0.2052 1.3631,1.5907 l -2e-4,3.9721 z"
           inkscape:connector-curvature="0"
           style="fill:#686868" />
        <path
           id="_284143272"
           class="fil1"
           d="m 68.3468,89.2042 -1.8463,0 c -1.8126,0 -2.6938,0.9474 -2.6938,2.8942 l 0,14.9835 1.9457,0 0,-6.7385 3.3414,0 0,6.7385 1.9475,0 0,-14.9835 c 4e-4,-1.9468 -0.8817,-2.8942 -2.6945,-2.8942 z m 0.7474,9.4287 -3.3411,0 0,-6.3816 c 0,-0.8623 0.4753,-1.3354 1.3379,-1.3354 l 0.666,0 c 0.8636,0 1.3372,0.4731 1.3372,1.3354 l 0,6.3816 z"
           inkscape:connector-curvature="0"
           style="fill:#686868" />
      </g>
      <path
         class="fil2"
         d="m 76.6466,78.5923 c -8.1342,0 -30.726,0 -38.9,0 -1.2458,0 -2.1132,-0.8907 -2.1132,-0.8907 0,0 -0.9664,-0.8166 -1.0513,-1.7954 -0.1685,-1.9427 -0.6391,-7.6083 -0.6391,-7.6083 l 35.9078,2e-4 1.4739,-25.9223 -29.6626,0 -0.3474,-9.7146 40.0098,0.0205 c 0,0 1.0407,-0.0669 1.6207,0.414 0.5579,0.4597 0.4447,1.4312 0.4447,1.4312 l -3.593,41.3796 c -0.1353,1.1598 -0.8402,1.8422 -0.8402,1.8422 0,0 -0.8014,0.8436 -2.3101,0.8436 z"
         id="path21"
         inkscape:connector-curvature="0"
         style="fill:#f64444" />
      <path
         class="fil3"
         d="m 22.0884,14.065 c 9.8199,0 37.7366,0 47.6059,0 2.3307,0 3.1241,0.6842 3.1241,0.6842 0,0 0.8842,0.6019 0.7336,2.5307 -0.2015,2.5856 -0.6428,7.1202 -0.6428,7.1202 l -42.1743,0 1.5815,25.9523 29.8521,0 -0.2925,9.7292 -36.9123,0.0211 c 0,0 -1.478,0.0469 -2.0023,-0.4754 -0.8593,-0.86 -0.8593,-2.3856 -0.8593,-2.3856 0,0 -3.7035,-37.9731 -3.8746,-39.9615 -0.1053,-1.2019 1.0051,-2.3104 1.0051,-2.3104 0,0 0.8253,-0.9048 2.8558,-0.9048 z"
         id="path23"
         inkscape:connector-curvature="0"
         style="fill:#005597" />
    </g>
    <path
       style="fill:#333333;stroke:#333333;opacity:0.44444444"
       d="m 342.1651,825.83547 c 0,0 -7.02069,43.43656 -0.75222,92.93404 -0.25074,-61.87185 0.75222,-92.93404 0.75222,-92.93404 z"
       id="path4039"
       inkscape:connector-curvature="0"
       sodipodi:nodetypes="ccc" />
    <path
       sodipodi:nodetypes="ccc"
       inkscape:connector-curvature="0"
       id="path4041"
       d="m 635.33371,824.22832 c 0,0 8.27068,45.40085 0.21651,95.0769 0.25074,-61.87185 -0.21651,-95.0769 -0.21651,-95.0769 z"
       style="fill:#333333;stroke:#333333;opacity:0.44444444" />
  </g>
</svg>
